<mxfile host="Electron" agent="Mozilla/5.0 (Windows NT 10.0; Win64; x64) AppleWebKit/537.36 (KHTML, like Gecko) draw.io/25.0.2 Chrome/128.0.6613.186 Electron/32.2.5 Safari/537.36" version="25.0.2">
  <diagram name="Page-1" id="a98Tmk0QjU1YtMKrApM2">
    <mxGraphModel dx="2573" dy="1825" grid="0" gridSize="10" guides="1" tooltips="1" connect="1" arrows="1" fold="1" page="0" pageScale="1" pageWidth="827" pageHeight="1169" math="0" shadow="0">
      <root>
        <mxCell id="0" />
        <mxCell id="1" parent="0" />
        <mxCell id="ilkI7SvNm3SOwovufLQH-77" value="" style="rounded=0;whiteSpace=wrap;html=1;fillColor=#fad9d5;strokeColor=#ae4132;" vertex="1" parent="1">
          <mxGeometry x="395.5" y="730.5" width="149" height="80" as="geometry" />
        </mxCell>
        <mxCell id="ilkI7SvNm3SOwovufLQH-76" value="" style="rounded=0;whiteSpace=wrap;html=1;fillColor=#fad9d5;strokeColor=#ae4132;" vertex="1" parent="1">
          <mxGeometry x="395.5" y="630.5" width="149" height="80" as="geometry" />
        </mxCell>
        <mxCell id="ilkI7SvNm3SOwovufLQH-75" value="" style="rounded=0;whiteSpace=wrap;html=1;fillColor=#fad9d5;strokeColor=#ae4132;" vertex="1" parent="1">
          <mxGeometry x="395.5" y="531.5" width="149" height="80" as="geometry" />
        </mxCell>
        <mxCell id="ilkI7SvNm3SOwovufLQH-74" value="" style="rounded=0;whiteSpace=wrap;html=1;fillColor=#fad9d5;strokeColor=#ae4132;" vertex="1" parent="1">
          <mxGeometry x="395.5" y="433.5" width="149" height="80" as="geometry" />
        </mxCell>
        <mxCell id="ilkI7SvNm3SOwovufLQH-73" value="" style="rounded=0;whiteSpace=wrap;html=1;fillColor=#fad9d5;strokeColor=#ae4132;" vertex="1" parent="1">
          <mxGeometry x="395.5" y="336" width="149" height="80" as="geometry" />
        </mxCell>
        <mxCell id="ilkI7SvNm3SOwovufLQH-64" value="" style="rounded=0;whiteSpace=wrap;html=1;fillColor=#dae8fc;strokeColor=#6c8ebf;" vertex="1" parent="1">
          <mxGeometry x="185" y="-117" width="291.5" height="79" as="geometry" />
        </mxCell>
        <mxCell id="ilkI7SvNm3SOwovufLQH-63" value="" style="rounded=0;whiteSpace=wrap;html=1;fillColor=#dae8fc;strokeColor=#6c8ebf;" vertex="1" parent="1">
          <mxGeometry x="185" y="-323" width="291.5" height="79" as="geometry" />
        </mxCell>
        <mxCell id="ilkI7SvNm3SOwovufLQH-62" value="" style="rounded=0;whiteSpace=wrap;html=1;fillColor=#dae8fc;strokeColor=#6c8ebf;" vertex="1" parent="1">
          <mxGeometry x="256.25" y="-222" width="149" height="80" as="geometry" />
        </mxCell>
        <mxCell id="ilkI7SvNm3SOwovufLQH-61" value="" style="rounded=0;whiteSpace=wrap;html=1;fillColor=#dae8fc;strokeColor=#6c8ebf;" vertex="1" parent="1">
          <mxGeometry x="256.25" y="-424" width="149" height="80" as="geometry" />
        </mxCell>
        <mxCell id="ilkI7SvNm3SOwovufLQH-28" value="" style="rounded=0;whiteSpace=wrap;html=1;fillColor=#ffe6cc;strokeColor=#d79b00;" vertex="1" parent="1">
          <mxGeometry x="399.5" y="207" width="580" height="80" as="geometry" />
        </mxCell>
        <mxCell id="ilkI7SvNm3SOwovufLQH-27" value="" style="rounded=0;whiteSpace=wrap;html=1;fillColor=#ffe6cc;strokeColor=#d79b00;" vertex="1" parent="1">
          <mxGeometry x="541.25" y="-189" width="296.5" height="80" as="geometry" />
        </mxCell>
        <mxCell id="ilkI7SvNm3SOwovufLQH-24" value="" style="rounded=0;whiteSpace=wrap;html=1;fillColor=#ffe6cc;strokeColor=#d79b00;" vertex="1" parent="1">
          <mxGeometry x="615" y="107" width="149" height="80" as="geometry" />
        </mxCell>
        <mxCell id="ilkI7SvNm3SOwovufLQH-25" value="" style="rounded=0;whiteSpace=wrap;html=1;fillColor=#ffe6cc;strokeColor=#d79b00;" vertex="1" parent="1">
          <mxGeometry x="615" y="307" width="149" height="80" as="geometry" />
        </mxCell>
        <mxCell id="ilkI7SvNm3SOwovufLQH-26" value="" style="rounded=0;whiteSpace=wrap;html=1;fillColor=#ffe6cc;strokeColor=#d79b00;" vertex="1" parent="1">
          <mxGeometry x="615" y="409" width="149" height="80" as="geometry" />
        </mxCell>
        <mxCell id="ilkI7SvNm3SOwovufLQH-22" value="" style="rounded=0;whiteSpace=wrap;html=1;fillColor=#ffe6cc;strokeColor=#d79b00;" vertex="1" parent="1">
          <mxGeometry x="615" y="-286" width="149" height="80" as="geometry" />
        </mxCell>
        <mxCell id="ilkI7SvNm3SOwovufLQH-23" value="" style="rounded=0;whiteSpace=wrap;html=1;fillColor=#ffe6cc;strokeColor=#d79b00;" vertex="1" parent="1">
          <mxGeometry x="615" y="-387" width="149" height="80" as="geometry" />
        </mxCell>
        <mxCell id="ilkI7SvNm3SOwovufLQH-21" value="" style="rounded=0;whiteSpace=wrap;html=1;fillColor=#ffe6cc;strokeColor=#d79b00;" vertex="1" parent="1">
          <mxGeometry x="615" y="-93" width="149" height="80" as="geometry" />
        </mxCell>
        <mxCell id="ilkI7SvNm3SOwovufLQH-20" value="" style="rounded=0;whiteSpace=wrap;html=1;fillColor=#ffe6cc;strokeColor=#d79b00;" vertex="1" parent="1">
          <mxGeometry x="254" y="7" width="871" height="80" as="geometry" />
        </mxCell>
        <mxCell id="rgUU1p_orhtgP5f90bnq-60" value="" style="rounded=0;whiteSpace=wrap;html=1;fillColor=#d5e8d4;strokeColor=#82b366;" parent="1" vertex="1">
          <mxGeometry x="-210" y="621" width="150" height="80" as="geometry" />
        </mxCell>
        <mxCell id="rgUU1p_orhtgP5f90bnq-59" value="" style="rounded=0;whiteSpace=wrap;html=1;fillColor=#d5e8d4;strokeColor=#82b366;" parent="1" vertex="1">
          <mxGeometry x="-210" y="421" width="150" height="80" as="geometry" />
        </mxCell>
        <mxCell id="rgUU1p_orhtgP5f90bnq-57" value="" style="rounded=0;whiteSpace=wrap;html=1;fillColor=#d5e8d4;strokeColor=#82b366;" parent="1" vertex="1">
          <mxGeometry x="-589" y="521" width="906" height="80" as="geometry" />
        </mxCell>
        <mxCell id="rgUU1p_orhtgP5f90bnq-56" value="" style="rounded=0;whiteSpace=wrap;html=1;fillColor=#d5e8d4;strokeColor=#82b366;" parent="1" vertex="1">
          <mxGeometry x="-419" y="311" width="568" height="80" as="geometry" />
        </mxCell>
        <mxCell id="rgUU1p_orhtgP5f90bnq-54" value="" style="rounded=0;whiteSpace=wrap;html=1;fillColor=#d5e8d4;strokeColor=#82b366;" parent="1" vertex="1">
          <mxGeometry x="-211.5" y="201" width="150" height="80" as="geometry" />
        </mxCell>
        <mxCell id="rgUU1p_orhtgP5f90bnq-53" value="" style="rounded=0;whiteSpace=wrap;html=1;fillColor=#d5e8d4;strokeColor=#82b366;" parent="1" vertex="1">
          <mxGeometry x="-291.5" y="111" width="310" height="80" as="geometry" />
        </mxCell>
        <mxCell id="rgUU1p_orhtgP5f90bnq-51" value="" style="rounded=0;whiteSpace=wrap;html=1;fillColor=#d5e8d4;strokeColor=#82b366;" parent="1" vertex="1">
          <mxGeometry x="-500.5" y="11" width="729" height="80" as="geometry" />
        </mxCell>
        <mxCell id="rgUU1p_orhtgP5f90bnq-50" value="" style="rounded=0;whiteSpace=wrap;html=1;fillColor=#d5e8d4;strokeColor=#82b366;" parent="1" vertex="1">
          <mxGeometry x="-213" y="-379" width="151" height="80" as="geometry" />
        </mxCell>
        <mxCell id="rgUU1p_orhtgP5f90bnq-49" value="" style="rounded=0;whiteSpace=wrap;html=1;fillColor=#d5e8d4;strokeColor=#82b366;" parent="1" vertex="1">
          <mxGeometry x="-211.5" y="-79" width="151" height="80" as="geometry" />
        </mxCell>
        <mxCell id="rgUU1p_orhtgP5f90bnq-48" value="" style="rounded=0;whiteSpace=wrap;html=1;fillColor=#d5e8d4;strokeColor=#82b366;" parent="1" vertex="1">
          <mxGeometry x="-420.5" y="-179" width="569" height="80" as="geometry" />
        </mxCell>
        <mxCell id="rgUU1p_orhtgP5f90bnq-47" value="" style="rounded=0;whiteSpace=wrap;html=1;fillColor=#d5e8d4;strokeColor=#82b366;" parent="1" vertex="1">
          <mxGeometry x="-291.5" y="-269" width="310" height="80" as="geometry" />
        </mxCell>
        <mxCell id="rgUU1p_orhtgP5f90bnq-1" value="Produce Project Plan" style="rounded=1;whiteSpace=wrap;html=1;fillColor=#60a917;strokeColor=#2D7600;fontColor=#ffffff;" parent="1" vertex="1">
          <mxGeometry x="-197.5" y="-369" width="120" height="60" as="geometry" />
        </mxCell>
        <mxCell id="rgUU1p_orhtgP5f90bnq-2" value="Outline Tasks to Complete" style="rounded=1;whiteSpace=wrap;html=1;fillColor=#60a917;strokeColor=#2D7600;fontColor=#ffffff;" parent="1" vertex="1">
          <mxGeometry x="-270.5" y="-259" width="120" height="60" as="geometry" />
        </mxCell>
        <mxCell id="rgUU1p_orhtgP5f90bnq-3" value="Label Tasks to their respective priorities" style="rounded=1;whiteSpace=wrap;html=1;fillColor=#60a917;strokeColor=#2D7600;fontColor=#ffffff;" parent="1" vertex="1">
          <mxGeometry x="-124.5" y="-259" width="120" height="60" as="geometry" />
        </mxCell>
        <mxCell id="rgUU1p_orhtgP5f90bnq-4" value="Project Client Brief" style="rounded=1;whiteSpace=wrap;html=1;fillColor=#60a917;strokeColor=#2D7600;fontColor=#ffffff;" parent="1" vertex="1">
          <mxGeometry x="-407.5" y="-169" width="120" height="60" as="geometry" />
        </mxCell>
        <mxCell id="rgUU1p_orhtgP5f90bnq-5" value="Aims of the Project" style="rounded=1;whiteSpace=wrap;html=1;fillColor=#60a917;strokeColor=#2D7600;fontColor=#ffffff;" parent="1" vertex="1">
          <mxGeometry x="-267.5" y="-169" width="120" height="60" as="geometry" />
        </mxCell>
        <mxCell id="rgUU1p_orhtgP5f90bnq-6" value="Functional Requirements" style="rounded=1;whiteSpace=wrap;html=1;fillColor=#60a917;strokeColor=#2D7600;fontColor=#ffffff;" parent="1" vertex="1">
          <mxGeometry x="-127.5" y="-169" width="120" height="60" as="geometry" />
        </mxCell>
        <mxCell id="rgUU1p_orhtgP5f90bnq-7" value="Non-Functional Requirements" style="rounded=1;whiteSpace=wrap;html=1;fillColor=#60a917;strokeColor=#2D7600;fontColor=#ffffff;" parent="1" vertex="1">
          <mxGeometry x="12.5" y="-169" width="120" height="60" as="geometry" />
        </mxCell>
        <mxCell id="rgUU1p_orhtgP5f90bnq-14" value="Project Research" style="rounded=1;whiteSpace=wrap;html=1;fillColor=#60a917;strokeColor=#2D7600;fontColor=#ffffff;" parent="1" vertex="1">
          <mxGeometry x="-197.5" y="-69" width="120" height="60" as="geometry" />
        </mxCell>
        <mxCell id="rgUU1p_orhtgP5f90bnq-15" value="Create User Groups" style="rounded=1;whiteSpace=wrap;html=1;fillColor=#60a917;strokeColor=#2D7600;fontColor=#ffffff;" parent="1" vertex="1">
          <mxGeometry x="-492.5" y="21" width="120" height="60" as="geometry" />
        </mxCell>
        <mxCell id="rgUU1p_orhtgP5f90bnq-16" value="Create User Scenarios" style="rounded=1;whiteSpace=wrap;html=1;fillColor=#60a917;strokeColor=#2D7600;fontColor=#ffffff;" parent="1" vertex="1">
          <mxGeometry x="-342.5" y="21" width="120" height="60" as="geometry" />
        </mxCell>
        <mxCell id="rgUU1p_orhtgP5f90bnq-18" value="Outline Project Assumptions" style="rounded=1;whiteSpace=wrap;html=1;fillColor=#60a917;strokeColor=#2D7600;fontColor=#ffffff;" parent="1" vertex="1">
          <mxGeometry x="-51.5" y="21" width="120" height="60" as="geometry" />
        </mxCell>
        <mxCell id="rgUU1p_orhtgP5f90bnq-19" value="Outline Project Constraints" style="rounded=1;whiteSpace=wrap;html=1;fillColor=#60a917;strokeColor=#2D7600;fontColor=#ffffff;" parent="1" vertex="1">
          <mxGeometry x="97.5" y="21" width="120" height="60" as="geometry" />
        </mxCell>
        <mxCell id="rgUU1p_orhtgP5f90bnq-20" value="Display Task Analysis" style="rounded=1;whiteSpace=wrap;html=1;fillColor=#60a917;strokeColor=#2D7600;fontColor=#ffffff;" parent="1" vertex="1">
          <mxGeometry x="-197.5" y="21" width="120" height="60" as="geometry" />
        </mxCell>
        <mxCell id="rgUU1p_orhtgP5f90bnq-21" value="Research Security Requirements" style="rounded=1;whiteSpace=wrap;html=1;fillColor=#60a917;strokeColor=#2D7600;fontColor=#ffffff;" parent="1" vertex="1">
          <mxGeometry x="-270.5" y="121" width="120" height="60" as="geometry" />
        </mxCell>
        <mxCell id="rgUU1p_orhtgP5f90bnq-22" value="Research Performance Requirements" style="rounded=1;whiteSpace=wrap;html=1;fillColor=#60a917;strokeColor=#2D7600;fontColor=#ffffff;" parent="1" vertex="1">
          <mxGeometry x="-124.5" y="121" width="120" height="60" as="geometry" />
        </mxCell>
        <mxCell id="rgUU1p_orhtgP5f90bnq-23" value="Resources" style="rounded=1;whiteSpace=wrap;html=1;fillColor=#60a917;strokeColor=#2D7600;fontColor=#ffffff;" parent="1" vertex="1">
          <mxGeometry x="-196" y="211" width="120" height="60" as="geometry" />
        </mxCell>
        <mxCell id="rgUU1p_orhtgP5f90bnq-24" value="Outline Hardware to be used" style="rounded=1;whiteSpace=wrap;html=1;fillColor=#60a917;strokeColor=#2D7600;fontColor=#ffffff;" parent="1" vertex="1">
          <mxGeometry x="-407.5" y="321" width="120" height="60" as="geometry" />
        </mxCell>
        <mxCell id="rgUU1p_orhtgP5f90bnq-25" value="Outline Software to be used" style="rounded=1;whiteSpace=wrap;html=1;fillColor=#60a917;strokeColor=#2D7600;fontColor=#ffffff;" parent="1" vertex="1">
          <mxGeometry x="-267.5" y="321" width="120" height="60" as="geometry" />
        </mxCell>
        <mxCell id="rgUU1p_orhtgP5f90bnq-26" value="Outline Tools to be used" style="rounded=1;whiteSpace=wrap;html=1;fillColor=#60a917;strokeColor=#2D7600;fontColor=#ffffff;" parent="1" vertex="1">
          <mxGeometry x="-127" y="321" width="120" height="60" as="geometry" />
        </mxCell>
        <mxCell id="rgUU1p_orhtgP5f90bnq-27" value="Create Asset Log" style="rounded=1;whiteSpace=wrap;html=1;fillColor=#60a917;strokeColor=#2D7600;fontColor=#ffffff;" parent="1" vertex="1">
          <mxGeometry x="12.5" y="321" width="120" height="60" as="geometry" />
        </mxCell>
        <mxCell id="rgUU1p_orhtgP5f90bnq-28" value="Diagrams" style="rounded=1;whiteSpace=wrap;html=1;fillColor=#60a917;strokeColor=#2D7600;fontColor=#ffffff;" parent="1" vertex="1">
          <mxGeometry x="-197.5" y="431" width="120" height="60" as="geometry" />
        </mxCell>
        <mxCell id="rgUU1p_orhtgP5f90bnq-31" value="Create Class Diagrams" style="rounded=1;whiteSpace=wrap;html=1;fillColor=#60a917;fontColor=#ffffff;strokeColor=#2D7600;" parent="1" vertex="1">
          <mxGeometry x="-419" y="531" width="120" height="60" as="geometry" />
        </mxCell>
        <mxCell id="rgUU1p_orhtgP5f90bnq-32" value="Create Sequence Diagrams" style="rounded=1;whiteSpace=wrap;html=1;fillColor=#60a917;fontColor=#ffffff;strokeColor=#2D7600;" parent="1" vertex="1">
          <mxGeometry x="-269" y="531" width="120" height="60" as="geometry" />
        </mxCell>
        <mxCell id="rgUU1p_orhtgP5f90bnq-33" value="Create Use Case Diagrams" style="rounded=1;whiteSpace=wrap;html=1;fillColor=#60a917;fontColor=#ffffff;strokeColor=#2D7600;" parent="1" vertex="1">
          <mxGeometry x="-123" y="531" width="120" height="60" as="geometry" />
        </mxCell>
        <mxCell id="rgUU1p_orhtgP5f90bnq-34" value="Create Activity Diagrams" style="rounded=1;whiteSpace=wrap;html=1;fillColor=#60a917;fontColor=#ffffff;strokeColor=#2D7600;" parent="1" vertex="1">
          <mxGeometry x="26" y="531" width="120" height="60" as="geometry" />
        </mxCell>
        <mxCell id="rgUU1p_orhtgP5f90bnq-35" value="Create ERD Diagrams" style="rounded=1;whiteSpace=wrap;html=1;fillColor=#60a917;fontColor=#ffffff;strokeColor=#2D7600;" parent="1" vertex="1">
          <mxGeometry x="180" y="531" width="120" height="60" as="geometry" />
        </mxCell>
        <mxCell id="rgUU1p_orhtgP5f90bnq-36" value="Create Data Binding Diagrams" style="rounded=1;whiteSpace=wrap;html=1;fillColor=#60a917;fontColor=#ffffff;strokeColor=#2D7600;" parent="1" vertex="1">
          <mxGeometry x="-570" y="531" width="120" height="60" as="geometry" />
        </mxCell>
        <mxCell id="rgUU1p_orhtgP5f90bnq-37" value="Design Wireframes" style="rounded=1;whiteSpace=wrap;html=1;fillColor=#60a917;fontColor=#ffffff;strokeColor=#2D7600;" parent="1" vertex="1">
          <mxGeometry x="-197" y="631" width="120" height="60" as="geometry" />
        </mxCell>
        <mxCell id="rgUU1p_orhtgP5f90bnq-38" value="" style="endArrow=classic;html=1;rounded=0;exitX=0.5;exitY=1;exitDx=0;exitDy=0;" parent="1" source="rgUU1p_orhtgP5f90bnq-1" edge="1">
          <mxGeometry width="50" height="50" relative="1" as="geometry">
            <mxPoint x="-141.5" y="-259" as="sourcePoint" />
            <mxPoint x="-137.5" y="-269" as="targetPoint" />
          </mxGeometry>
        </mxCell>
        <mxCell id="rgUU1p_orhtgP5f90bnq-46" value="" style="endArrow=classic;html=1;rounded=0;" parent="1" edge="1">
          <mxGeometry width="50" height="50" relative="1" as="geometry">
            <mxPoint x="-136.5" y="-9" as="sourcePoint" />
            <mxPoint x="-136.5" y="21" as="targetPoint" />
            <Array as="points">
              <mxPoint x="-136.5" y="1" />
            </Array>
          </mxGeometry>
        </mxCell>
        <mxCell id="rgUU1p_orhtgP5f90bnq-61" value="" style="endArrow=classic;html=1;rounded=0;exitX=0.5;exitY=1;exitDx=0;exitDy=0;" parent="1" source="rgUU1p_orhtgP5f90bnq-51" target="rgUU1p_orhtgP5f90bnq-53" edge="1">
          <mxGeometry width="50" height="50" relative="1" as="geometry">
            <mxPoint x="-481.5" y="221" as="sourcePoint" />
            <mxPoint x="-431.5" y="171" as="targetPoint" />
          </mxGeometry>
        </mxCell>
        <mxCell id="rgUU1p_orhtgP5f90bnq-62" value="" style="endArrow=classic;html=1;rounded=0;exitX=0.5;exitY=1;exitDx=0;exitDy=0;" parent="1" source="rgUU1p_orhtgP5f90bnq-53" target="rgUU1p_orhtgP5f90bnq-23" edge="1">
          <mxGeometry width="50" height="50" relative="1" as="geometry">
            <mxPoint x="-321.5" y="281" as="sourcePoint" />
            <mxPoint x="-271.5" y="231" as="targetPoint" />
          </mxGeometry>
        </mxCell>
        <mxCell id="rgUU1p_orhtgP5f90bnq-67" value="" style="endArrow=classic;html=1;rounded=0;exitX=0.5;exitY=1;exitDx=0;exitDy=0;" parent="1" source="rgUU1p_orhtgP5f90bnq-54" target="rgUU1p_orhtgP5f90bnq-56" edge="1">
          <mxGeometry width="50" height="50" relative="1" as="geometry">
            <mxPoint x="-521.5" y="321" as="sourcePoint" />
            <mxPoint x="-471.5" y="271" as="targetPoint" />
          </mxGeometry>
        </mxCell>
        <mxCell id="rgUU1p_orhtgP5f90bnq-68" value="" style="endArrow=classic;html=1;rounded=0;exitX=0.5;exitY=1;exitDx=0;exitDy=0;entryX=0.5;entryY=0;entryDx=0;entryDy=0;" parent="1" source="rgUU1p_orhtgP5f90bnq-56" target="rgUU1p_orhtgP5f90bnq-59" edge="1">
          <mxGeometry width="50" height="50" relative="1" as="geometry">
            <mxPoint x="-371.5" y="511" as="sourcePoint" />
            <mxPoint x="-321.5" y="461" as="targetPoint" />
          </mxGeometry>
        </mxCell>
        <mxCell id="rgUU1p_orhtgP5f90bnq-69" value="" style="endArrow=classic;html=1;rounded=0;exitX=0.5;exitY=1;exitDx=0;exitDy=0;" parent="1" source="rgUU1p_orhtgP5f90bnq-59" target="rgUU1p_orhtgP5f90bnq-57" edge="1">
          <mxGeometry width="50" height="50" relative="1" as="geometry">
            <mxPoint x="-521.5" y="511" as="sourcePoint" />
            <mxPoint x="-471.5" y="461" as="targetPoint" />
          </mxGeometry>
        </mxCell>
        <mxCell id="rgUU1p_orhtgP5f90bnq-70" value="" style="endArrow=classic;html=1;rounded=0;exitX=0.5;exitY=1;exitDx=0;exitDy=0;" parent="1" source="rgUU1p_orhtgP5f90bnq-57" target="rgUU1p_orhtgP5f90bnq-37" edge="1">
          <mxGeometry width="50" height="50" relative="1" as="geometry">
            <mxPoint x="-341.5" y="771" as="sourcePoint" />
            <mxPoint x="-291.5" y="721" as="targetPoint" />
          </mxGeometry>
        </mxCell>
        <mxCell id="ilkI7SvNm3SOwovufLQH-1" value="Create Pages For" style="rounded=1;whiteSpace=wrap;html=1;fillColor=#f0a30a;strokeColor=#BD7000;fontColor=#000000;" vertex="1" parent="1">
          <mxGeometry x="629.5" y="117" width="120" height="60" as="geometry" />
        </mxCell>
        <mxCell id="ilkI7SvNm3SOwovufLQH-2" value="Login Page" style="rounded=1;whiteSpace=wrap;html=1;fillColor=#f0a30a;strokeColor=#BD7000;fontColor=#000000;" vertex="1" parent="1">
          <mxGeometry x="409" y="217" width="120" height="60" as="geometry" />
        </mxCell>
        <mxCell id="ilkI7SvNm3SOwovufLQH-3" value="Traveller Sheets Page" style="rounded=1;whiteSpace=wrap;html=1;fillColor=#f0a30a;strokeColor=#BD7000;fontColor=#000000;" vertex="1" parent="1">
          <mxGeometry x="555" y="217" width="120" height="60" as="geometry" />
        </mxCell>
        <mxCell id="ilkI7SvNm3SOwovufLQH-4" value="Edit Traveller Page" style="rounded=1;whiteSpace=wrap;html=1;fillColor=#f0a30a;strokeColor=#BD7000;fontColor=#000000;" vertex="1" parent="1">
          <mxGeometry x="701" y="217" width="120" height="60" as="geometry" />
        </mxCell>
        <mxCell id="ilkI7SvNm3SOwovufLQH-5" value="Edit Traveller Revision Page" style="rounded=1;whiteSpace=wrap;html=1;fillColor=#f0a30a;strokeColor=#BD7000;fontColor=#000000;" vertex="1" parent="1">
          <mxGeometry x="847" y="217" width="120" height="60" as="geometry" />
        </mxCell>
        <mxCell id="ilkI7SvNm3SOwovufLQH-7" value="Implement Export Functionality" style="rounded=1;whiteSpace=wrap;html=1;fillColor=#f0a30a;strokeColor=#BD7000;fontColor=#000000;" vertex="1" parent="1">
          <mxGeometry x="628" y="317" width="120" height="60" as="geometry" />
        </mxCell>
        <mxCell id="ilkI7SvNm3SOwovufLQH-8" value="Implement Security Requirements" style="rounded=1;whiteSpace=wrap;html=1;fillColor=#f0a30a;strokeColor=#BD7000;fontColor=#000000;" vertex="1" parent="1">
          <mxGeometry x="629.5" y="419" width="120" height="60" as="geometry" />
        </mxCell>
        <mxCell id="ilkI7SvNm3SOwovufLQH-9" value="Create MySQL Database" style="rounded=1;whiteSpace=wrap;html=1;fillColor=#f0a30a;strokeColor=#BD7000;fontColor=#000000;" vertex="1" parent="1">
          <mxGeometry x="629.5" y="-377" width="120" height="60" as="geometry" />
        </mxCell>
        <mxCell id="ilkI7SvNm3SOwovufLQH-10" value="Create Accounts For" style="rounded=1;whiteSpace=wrap;html=1;fillColor=#f0a30a;strokeColor=#BD7000;fontColor=#000000;" vertex="1" parent="1">
          <mxGeometry x="631" y="-276" width="120" height="60" as="geometry" />
        </mxCell>
        <mxCell id="ilkI7SvNm3SOwovufLQH-11" value="Production Associate" style="rounded=1;whiteSpace=wrap;html=1;fillColor=#f0a30a;strokeColor=#BD7000;fontColor=#000000;" vertex="1" parent="1">
          <mxGeometry x="555.75" y="-179" width="120" height="60" as="geometry" />
        </mxCell>
        <mxCell id="ilkI7SvNm3SOwovufLQH-12" value="Head Of Production" style="rounded=1;whiteSpace=wrap;html=1;fillColor=#f0a30a;strokeColor=#BD7000;fontColor=#000000;" vertex="1" parent="1">
          <mxGeometry x="701.75" y="-179" width="120" height="60" as="geometry" />
        </mxCell>
        <mxCell id="ilkI7SvNm3SOwovufLQH-13" value="Create Classes For" style="rounded=1;whiteSpace=wrap;html=1;fillColor=#f0a30a;strokeColor=#BD7000;fontColor=#000000;" vertex="1" parent="1">
          <mxGeometry x="631" y="-82" width="120" height="60" as="geometry" />
        </mxCell>
        <mxCell id="ilkI7SvNm3SOwovufLQH-14" value="System Account" style="rounded=1;whiteSpace=wrap;html=1;fillColor=#f0a30a;strokeColor=#BD7000;fontColor=#000000;" vertex="1" parent="1">
          <mxGeometry x="264" y="17" width="120" height="60" as="geometry" />
        </mxCell>
        <mxCell id="ilkI7SvNm3SOwovufLQH-15" value="Production Associate" style="rounded=1;whiteSpace=wrap;html=1;fillColor=#f0a30a;strokeColor=#BD7000;fontColor=#000000;" vertex="1" parent="1">
          <mxGeometry x="410" y="17" width="120" height="60" as="geometry" />
        </mxCell>
        <mxCell id="ilkI7SvNm3SOwovufLQH-16" value="Head Of Production" style="rounded=1;whiteSpace=wrap;html=1;fillColor=#f0a30a;strokeColor=#BD7000;fontColor=#000000;" vertex="1" parent="1">
          <mxGeometry x="556" y="17" width="120" height="60" as="geometry" />
        </mxCell>
        <mxCell id="ilkI7SvNm3SOwovufLQH-17" value="Traveller Sheets" style="rounded=1;whiteSpace=wrap;html=1;fillColor=#f0a30a;strokeColor=#BD7000;fontColor=#000000;" vertex="1" parent="1">
          <mxGeometry x="702" y="17" width="120" height="60" as="geometry" />
        </mxCell>
        <mxCell id="ilkI7SvNm3SOwovufLQH-18" value="Traveller Revision" style="rounded=1;whiteSpace=wrap;html=1;fillColor=#f0a30a;strokeColor=#BD7000;fontColor=#000000;" vertex="1" parent="1">
          <mxGeometry x="848" y="17" width="120" height="60" as="geometry" />
        </mxCell>
        <mxCell id="ilkI7SvNm3SOwovufLQH-19" value="Exporting" style="rounded=1;whiteSpace=wrap;html=1;fillColor=#f0a30a;strokeColor=#BD7000;fontColor=#000000;" vertex="1" parent="1">
          <mxGeometry x="994" y="17" width="120" height="60" as="geometry" />
        </mxCell>
        <mxCell id="ilkI7SvNm3SOwovufLQH-29" value="" style="endArrow=classic;html=1;rounded=0;exitX=0.5;exitY=1;exitDx=0;exitDy=0;entryX=0.5;entryY=0;entryDx=0;entryDy=0;" edge="1" parent="1" source="ilkI7SvNm3SOwovufLQH-23" target="ilkI7SvNm3SOwovufLQH-22">
          <mxGeometry width="50" height="50" relative="1" as="geometry">
            <mxPoint x="390.75" y="-193" as="sourcePoint" />
            <mxPoint x="440.75" y="-243" as="targetPoint" />
          </mxGeometry>
        </mxCell>
        <mxCell id="ilkI7SvNm3SOwovufLQH-30" value="" style="endArrow=classic;html=1;rounded=0;exitX=0.5;exitY=1;exitDx=0;exitDy=0;" edge="1" parent="1" source="ilkI7SvNm3SOwovufLQH-22" target="ilkI7SvNm3SOwovufLQH-27">
          <mxGeometry width="50" height="50" relative="1" as="geometry">
            <mxPoint x="513.75" y="-60" as="sourcePoint" />
            <mxPoint x="563.75" y="-110" as="targetPoint" />
          </mxGeometry>
        </mxCell>
        <mxCell id="ilkI7SvNm3SOwovufLQH-31" value="" style="endArrow=classic;html=1;rounded=0;exitX=0.5;exitY=1;exitDx=0;exitDy=0;entryX=0.5;entryY=0;entryDx=0;entryDy=0;" edge="1" parent="1" source="ilkI7SvNm3SOwovufLQH-27" target="ilkI7SvNm3SOwovufLQH-21">
          <mxGeometry width="50" height="50" relative="1" as="geometry">
            <mxPoint x="296.75" y="-95" as="sourcePoint" />
            <mxPoint x="346.75" y="-145" as="targetPoint" />
          </mxGeometry>
        </mxCell>
        <mxCell id="ilkI7SvNm3SOwovufLQH-32" value="" style="endArrow=classic;html=1;rounded=0;exitX=0.5;exitY=1;exitDx=0;exitDy=0;entryX=0.5;entryY=0;entryDx=0;entryDy=0;" edge="1" parent="1" source="ilkI7SvNm3SOwovufLQH-21" target="ilkI7SvNm3SOwovufLQH-20">
          <mxGeometry width="50" height="50" relative="1" as="geometry">
            <mxPoint x="317.75" y="-16" as="sourcePoint" />
            <mxPoint x="367.75" y="-66" as="targetPoint" />
          </mxGeometry>
        </mxCell>
        <mxCell id="ilkI7SvNm3SOwovufLQH-40" value="" style="endArrow=classic;html=1;rounded=0;exitX=0.5;exitY=1;exitDx=0;exitDy=0;entryX=0.5;entryY=0;entryDx=0;entryDy=0;" edge="1" parent="1" source="ilkI7SvNm3SOwovufLQH-20" target="ilkI7SvNm3SOwovufLQH-24">
          <mxGeometry width="50" height="50" relative="1" as="geometry">
            <mxPoint x="296.75" y="-70" as="sourcePoint" />
            <mxPoint x="346.75" y="-120" as="targetPoint" />
          </mxGeometry>
        </mxCell>
        <mxCell id="ilkI7SvNm3SOwovufLQH-41" value="" style="endArrow=classic;html=1;rounded=0;exitX=0.5;exitY=1;exitDx=0;exitDy=0;" edge="1" parent="1" source="ilkI7SvNm3SOwovufLQH-24" target="ilkI7SvNm3SOwovufLQH-28">
          <mxGeometry width="50" height="50" relative="1" as="geometry">
            <mxPoint x="286.75" y="199" as="sourcePoint" />
            <mxPoint x="336.75" y="149" as="targetPoint" />
          </mxGeometry>
        </mxCell>
        <mxCell id="ilkI7SvNm3SOwovufLQH-42" value="" style="endArrow=classic;html=1;rounded=0;exitX=0.5;exitY=1;exitDx=0;exitDy=0;entryX=0.5;entryY=0;entryDx=0;entryDy=0;" edge="1" parent="1" source="ilkI7SvNm3SOwovufLQH-28" target="ilkI7SvNm3SOwovufLQH-25">
          <mxGeometry width="50" height="50" relative="1" as="geometry">
            <mxPoint x="299.75" y="192" as="sourcePoint" />
            <mxPoint x="349.75" y="142" as="targetPoint" />
          </mxGeometry>
        </mxCell>
        <mxCell id="ilkI7SvNm3SOwovufLQH-43" value="" style="endArrow=classic;html=1;rounded=0;exitX=0.5;exitY=1;exitDx=0;exitDy=0;entryX=0.5;entryY=0;entryDx=0;entryDy=0;" edge="1" parent="1" source="ilkI7SvNm3SOwovufLQH-25" target="ilkI7SvNm3SOwovufLQH-26">
          <mxGeometry width="50" height="50" relative="1" as="geometry">
            <mxPoint x="702.75" y="542" as="sourcePoint" />
            <mxPoint x="752.75" y="492" as="targetPoint" />
          </mxGeometry>
        </mxCell>
        <mxCell id="ilkI7SvNm3SOwovufLQH-55" value="Does the Result meet requirements" style="rounded=1;whiteSpace=wrap;html=1;fillColor=#b1ddf0;strokeColor=#10739e;" vertex="1" parent="1">
          <mxGeometry x="270.75" y="-414" width="120" height="60" as="geometry" />
        </mxCell>
        <mxCell id="ilkI7SvNm3SOwovufLQH-56" value="Key Strengths" style="rounded=1;whiteSpace=wrap;html=1;fillColor=#b1ddf0;strokeColor=#10739e;" vertex="1" parent="1">
          <mxGeometry x="199.75" y="-313.5" width="120" height="60" as="geometry" />
        </mxCell>
        <mxCell id="ilkI7SvNm3SOwovufLQH-57" value="Key Weaknesses" style="rounded=1;whiteSpace=wrap;html=1;fillColor=#b1ddf0;strokeColor=#10739e;" vertex="1" parent="1">
          <mxGeometry x="341.75" y="-313.5" width="120" height="60" as="geometry" />
        </mxCell>
        <mxCell id="ilkI7SvNm3SOwovufLQH-58" value="Areas to improve through the lifecycle/development" style="rounded=1;whiteSpace=wrap;html=1;fillColor=#b1ddf0;strokeColor=#10739e;" vertex="1" parent="1">
          <mxGeometry x="270.75" y="-212" width="120" height="60" as="geometry" />
        </mxCell>
        <mxCell id="ilkI7SvNm3SOwovufLQH-59" value="New Skills Gained from the project" style="rounded=1;whiteSpace=wrap;html=1;fillColor=#b1ddf0;strokeColor=#10739e;" vertex="1" parent="1">
          <mxGeometry x="199.75" y="-107.5" width="120" height="60" as="geometry" />
        </mxCell>
        <mxCell id="ilkI7SvNm3SOwovufLQH-60" value="Changed from the planning documentation" style="rounded=1;whiteSpace=wrap;html=1;fillColor=#b1ddf0;strokeColor=#10739e;" vertex="1" parent="1">
          <mxGeometry x="341.75" y="-107.5" width="120" height="60" as="geometry" />
        </mxCell>
        <mxCell id="ilkI7SvNm3SOwovufLQH-65" value="" style="endArrow=classic;html=1;rounded=0;exitX=0.5;exitY=1;exitDx=0;exitDy=0;entryX=0.5;entryY=0;entryDx=0;entryDy=0;" edge="1" parent="1" source="ilkI7SvNm3SOwovufLQH-61" target="ilkI7SvNm3SOwovufLQH-63">
          <mxGeometry width="50" height="50" relative="1" as="geometry">
            <mxPoint x="85.75" y="-119" as="sourcePoint" />
            <mxPoint x="135.75" y="-169" as="targetPoint" />
          </mxGeometry>
        </mxCell>
        <mxCell id="ilkI7SvNm3SOwovufLQH-66" value="" style="endArrow=classic;html=1;rounded=0;exitX=0.5;exitY=1;exitDx=0;exitDy=0;entryX=0.5;entryY=0;entryDx=0;entryDy=0;" edge="1" parent="1" source="ilkI7SvNm3SOwovufLQH-63" target="ilkI7SvNm3SOwovufLQH-62">
          <mxGeometry width="50" height="50" relative="1" as="geometry">
            <mxPoint x="78.75" y="-70" as="sourcePoint" />
            <mxPoint x="128.75" y="-120" as="targetPoint" />
          </mxGeometry>
        </mxCell>
        <mxCell id="ilkI7SvNm3SOwovufLQH-67" value="" style="endArrow=classic;html=1;rounded=0;exitX=0.5;exitY=1;exitDx=0;exitDy=0;entryX=0.5;entryY=0;entryDx=0;entryDy=0;" edge="1" parent="1" source="ilkI7SvNm3SOwovufLQH-62" target="ilkI7SvNm3SOwovufLQH-64">
          <mxGeometry width="50" height="50" relative="1" as="geometry">
            <mxPoint x="-21.25" y="-17" as="sourcePoint" />
            <mxPoint x="28.75" y="-67" as="targetPoint" />
          </mxGeometry>
        </mxCell>
        <mxCell id="ilkI7SvNm3SOwovufLQH-68" value="Create Testing Documentation" style="rounded=1;whiteSpace=wrap;html=1;fillColor=#e51400;strokeColor=#B20000;fontColor=#ffffff;" vertex="1" parent="1">
          <mxGeometry x="410" y="346" width="120" height="60" as="geometry" />
        </mxCell>
        <mxCell id="ilkI7SvNm3SOwovufLQH-69" value="Begin Usability Testing" style="rounded=1;whiteSpace=wrap;html=1;fillColor=#e51400;strokeColor=#B20000;fontColor=#ffffff;" vertex="1" parent="1">
          <mxGeometry x="410" y="443.5" width="120" height="60" as="geometry" />
        </mxCell>
        <mxCell id="ilkI7SvNm3SOwovufLQH-70" value="Create Functionality Testing" style="rounded=1;whiteSpace=wrap;html=1;fillColor=#e51400;strokeColor=#B20000;fontColor=#ffffff;" vertex="1" parent="1">
          <mxGeometry x="410" y="640.5" width="120" height="60" as="geometry" />
        </mxCell>
        <mxCell id="ilkI7SvNm3SOwovufLQH-71" value="Fix Bug/Issues &amp;amp; Document them" style="rounded=1;whiteSpace=wrap;html=1;fillColor=#e51400;strokeColor=#B20000;fontColor=#ffffff;" vertex="1" parent="1">
          <mxGeometry x="410" y="541.5" width="120" height="60" as="geometry" />
        </mxCell>
        <mxCell id="ilkI7SvNm3SOwovufLQH-72" value="Fix Bugs/Issues &amp;amp; Document them" style="rounded=1;whiteSpace=wrap;html=1;fillColor=#e51400;strokeColor=#B20000;fontColor=#ffffff;" vertex="1" parent="1">
          <mxGeometry x="410" y="740.5" width="120" height="60" as="geometry" />
        </mxCell>
        <mxCell id="ilkI7SvNm3SOwovufLQH-78" value="" style="endArrow=classic;html=1;rounded=0;exitX=0.5;exitY=1;exitDx=0;exitDy=0;entryX=0.5;entryY=0;entryDx=0;entryDy=0;" edge="1" parent="1" source="ilkI7SvNm3SOwovufLQH-73" target="ilkI7SvNm3SOwovufLQH-74">
          <mxGeometry width="50" height="50" relative="1" as="geometry">
            <mxPoint x="167" y="642.5" as="sourcePoint" />
            <mxPoint x="217" y="592.5" as="targetPoint" />
          </mxGeometry>
        </mxCell>
        <mxCell id="ilkI7SvNm3SOwovufLQH-79" value="" style="endArrow=classic;html=1;rounded=0;exitX=0.5;exitY=1;exitDx=0;exitDy=0;entryX=0.5;entryY=0;entryDx=0;entryDy=0;" edge="1" parent="1" source="ilkI7SvNm3SOwovufLQH-74" target="ilkI7SvNm3SOwovufLQH-75">
          <mxGeometry width="50" height="50" relative="1" as="geometry">
            <mxPoint x="168" y="713.5" as="sourcePoint" />
            <mxPoint x="218" y="663.5" as="targetPoint" />
          </mxGeometry>
        </mxCell>
        <mxCell id="ilkI7SvNm3SOwovufLQH-80" value="" style="endArrow=classic;html=1;rounded=0;exitX=0.5;exitY=1;exitDx=0;exitDy=0;entryX=0.5;entryY=0;entryDx=0;entryDy=0;" edge="1" parent="1" source="ilkI7SvNm3SOwovufLQH-75" target="ilkI7SvNm3SOwovufLQH-76">
          <mxGeometry width="50" height="50" relative="1" as="geometry">
            <mxPoint x="153" y="658.5" as="sourcePoint" />
            <mxPoint x="203" y="608.5" as="targetPoint" />
          </mxGeometry>
        </mxCell>
        <mxCell id="ilkI7SvNm3SOwovufLQH-81" value="" style="endArrow=classic;html=1;rounded=0;exitX=0.5;exitY=1;exitDx=0;exitDy=0;entryX=0.5;entryY=0;entryDx=0;entryDy=0;" edge="1" parent="1" source="ilkI7SvNm3SOwovufLQH-76" target="ilkI7SvNm3SOwovufLQH-77">
          <mxGeometry width="50" height="50" relative="1" as="geometry">
            <mxPoint x="170" y="724.5" as="sourcePoint" />
            <mxPoint x="220" y="674.5" as="targetPoint" />
          </mxGeometry>
        </mxCell>
      </root>
    </mxGraphModel>
  </diagram>
</mxfile>
